<svg width="0" height="0" class="hidden" viewBox="0 0 0 0">
    <symbol fill="none" xmlns="http://www.w3.org/2000/svg" viewBox="0 0 24 24"
            id="check">
        <path d="M6.30005 11.1992L10.7 15.4992L18.1 8.49927"
              stroke="currentColor"
              stroke-width="1.5" stroke-linecap="round"
              stroke-linejoin="round"/>
    </symbol>
    <symbol fill="none" xmlns="http://www.w3.org/2000/svg" viewBox="0 0 24 24"
            id="close">
        <path d="M7.46021 16.7065L16.5398 7.62695" stroke="currentColor"
              stroke-width="1.63433" stroke-linecap="round"
              stroke-linejoin="round"/>
        <path d="M16.5398 16.7065L7.46021 7.62695" stroke="currentColor"
              stroke-width="1.63433" stroke-linecap="round"
              stroke-linejoin="round"/>
    </symbol>
    <symbol fill="none" xmlns="http://www.w3.org/2000/svg" viewBox="0 0 24 24"
            id="eye">
        <path d="M15.5802 11.9999C15.5802 13.9799 13.9802 15.5799 12.0002 15.5799C10.0202 15.5799 8.42017 13.9799 8.42017 11.9999C8.42017 10.0199 10.0202 8.41992 12.0002 8.41992C13.9802 8.41992 15.5802 10.0199 15.5802 11.9999Z"
              stroke="currentColor" stroke-width="1.5" stroke-linecap="round"
              stroke-linejoin="round"/>
        <path d="M12.0001 20.2707C15.5301 20.2707 18.8201 18.1907 21.1101 14.5907C22.0101 13.1807 22.0101 10.8107 21.1101 9.4007C18.8201 5.8007 15.5301 3.7207 12.0001 3.7207C8.47009 3.7207 5.18009 5.8007 2.89009 9.4007C1.99009 10.8107 1.99009 13.1807 2.89009 14.5907C5.18009 18.1907 8.47009 20.2707 12.0001 20.2707Z"
              stroke="currentColor" stroke-width="1.5" stroke-linecap="round"
              stroke-linejoin="round"/>
    </symbol>
    <symbol fill="currentColor"
            xmlns="http://www.w3.org/2000/svg"
            viewBox="0 0 24 24" id="copy">
        <g>
            <rect x="-3.14062" y="-1.125" width="25.3125" height="25.125"/>
        </g>
    </symbol>
    <symbol fill="none" xmlns="http://www.w3.org/2000/svg" viewBox="0 0 24 24"
            id="lock">
        <path d="M6 10V8C6 4.69 7 2 12 2C17 2 18 4.69 18 8V10"
              stroke="currentColor"
              stroke-width="1.5" stroke-linecap="round"
              stroke-linejoin="round"/>
        <path d="M12 18.5C13.3807 18.5 14.5 17.3807 14.5 16C14.5 14.6193 13.3807 13.5 12 13.5C10.6193 13.5 9.5 14.6193 9.5 16C9.5 17.3807 10.6193 18.5 12 18.5Z"
              stroke="currentColor" stroke-width="1.5" stroke-linecap="round"
              stroke-linejoin="round"/>
        <path d="M17 22H7C3 22 2 21 2 17V15C2 11 3 10 7 10H17C21 10 22 11 22 15V17C22 21 21 22 17 22Z"
              stroke="currentColor" stroke-width="1.5" stroke-linecap="round"
              stroke-linejoin="round"/>
    </symbol>
    <symbol fill="none" xmlns="http://www.w3.org/2000/svg" viewBox="0 0 24 24"
            id="settings">
        <path d="M12 15C13.6569 15 15 13.6569 15 12C15 10.3431 13.6569 9 12 9C10.3431 9 9 10.3431 9 12C9 13.6569 10.3431 15 12 15Z"
              stroke="currentColor" stroke-miterlimit="10"
              stroke-linecap="round"
              stroke-linejoin="round"/>
        <path d="M2 12.8814V11.1214C2 10.0814 2.85 9.2214 3.9 9.2214C5.71 9.2214 6.45 7.9414 5.54 6.3714C5.02 5.4714 5.33 4.3014 6.24 3.7814L7.97 2.7914C8.76 2.3214 9.78 2.6014 10.25 3.3914L10.36 3.5814C11.26 5.1514 12.74 5.1514 13.65 3.5814L13.76 3.3914C14.23 2.6014 15.25 2.3214 16.04 2.7914L17.77 3.7814C18.68 4.3014 18.99 5.4714 18.47 6.3714C17.56 7.9414 18.3 9.2214 20.11 9.2214C21.15 9.2214 22.01 10.0714 22.01 11.1214V12.8814C22.01 13.9214 21.16 14.7814 20.11 14.7814C18.3 14.7814 17.56 16.0614 18.47 17.6314C18.99 18.5414 18.68 19.7014 17.77 20.2214L16.04 21.2114C15.25 21.6814 14.23 21.4014 13.76 20.6114L13.65 20.4214C12.75 18.8514 11.27 18.8514 10.36 20.4214L10.25 20.6114C9.78 21.4014 8.76 21.6814 7.97 21.2114L6.24 20.2214C5.33 19.7014 5.02 18.5314 5.54 17.6314C6.45 16.0614 5.71 14.7814 3.9 14.7814C2.85 14.7814 2 13.9214 2 12.8814Z"
              stroke="currentColor" stroke-miterlimit="10"
              stroke-linecap="round"
              stroke-linejoin="round"/>
    </symbol>
    <symbol fill="none" xmlns="http://www.w3.org/2000/svg" viewBox="0 0 24 24"
            id="undo">
        <path d="M7.13013 18.3105H15.1301C17.8901 18.3105 20.1301 16.0705 20.1301 13.3105C20.1301 10.5505 17.8901 8.31055 15.1301 8.31055H4.13013"
              stroke="currentColor" stroke-width="1.5" stroke-miterlimit="10"
              stroke-linecap="round" stroke-linejoin="round"/>
        <path d="M6.43012 10.8114L3.87012 8.25141L6.43012 5.69141"
              stroke="currentColor" stroke-width="1.5" stroke-linecap="round"
              stroke-linejoin="round"/>
    </symbol>
    <symbol fill="none" xmlns="http://www.w3.org/2000/svg" viewBox="0 0 24 24"
            id="clock">
        <path d="M19.826 11.9999C19.826 16.3199 16.3199 19.826 11.9999 19.826C7.67992 19.826 4.17383 16.3199 4.17383 11.9999C4.17383 7.67992 7.67992 4.17383 11.9999 4.17383C16.3199 4.17383 19.826 7.67992 19.826 11.9999Z"
              stroke="currentColor" stroke-width="1.56522"
              stroke-linecap="round"
              stroke-linejoin="round"/>
        <path d="M14.9037 14.4889L12.4776 13.0411C12.055 12.7907 11.7107 12.1881 11.7107 11.695V8.48633"
              stroke="currentColor" stroke-width="1.56522"
              stroke-linecap="round"
              stroke-linejoin="round"/>
    </symbol>
    <symbol fill="none" xmlns="http://www.w3.org/2000/svg" viewBox="0 0 24 24"
            id="user">

    </symbol>
    <symbol fill="none" xmlns="http://www.w3.org/2000/svg" viewBox="0 0 24 24"
            id="close-square">
        <path d="M9.1687 14.8302L14.829 9.16992" stroke="currentColor"
              stroke-width="2.12488" stroke-linecap="round"
              stroke-linejoin="round"/>
        <path d="M14.829 14.8302L9.1687 9.16992" stroke="currentColor"
              stroke-width="2.12488" stroke-linecap="round"
              stroke-linejoin="round"/>
        <path d="M8.99878 22H14.9988C19.9988 22 21.9988 20 21.9988 15V9C21.9988 4 19.9988 2 14.9988 2H8.99878C3.99878 2 1.99878 4 1.99878 9V15C1.99878 20 3.99878 22 8.99878 22Z"
              stroke="currentColor" stroke-width="2.12488"
              stroke-linecap="round"
              stroke-linejoin="round"/>
    </symbol>
    <symbol fill="none" xmlns="http://www.w3.org/2000/svg" viewBox="0 0 24 24"
            id="eye-slash">
        <path d="M14.5299 9.44648L9.46992 14.5065C8.81992 13.8565 8.41992 12.9665 8.41992 11.9765C8.41992 9.99648 10.0199 8.39648 11.9999 8.39648C12.9899 8.39648 13.8799 8.79648 14.5299 9.44648Z"
              stroke="currentColor" stroke-width="1.5" stroke-linecap="round"
              stroke-linejoin="round"/>
        <path d="M17.8198 5.74703C16.0698 4.42703 14.0698 3.70703 11.9998 3.70703C8.46984 3.70703 5.17984 5.78703 2.88984 9.38703C1.98984 10.797 1.98984 13.167 2.88984 14.577C3.67984 15.817 4.59984 16.887 5.59984 17.747"
              stroke="currentColor" stroke-width="1.5" stroke-linecap="round"
              stroke-linejoin="round"/>
        <path d="M8.41992 19.5063C9.55992 19.9863 10.7699 20.2463 11.9999 20.2463C15.5299 20.2463 18.8199 18.1663 21.1099 14.5663C22.0099 13.1563 22.0099 10.7862 21.1099 9.37625C20.7799 8.85625 20.4199 8.36625 20.0499 7.90625"
              stroke="currentColor" stroke-width="1.5" stroke-linecap="round"
              stroke-linejoin="round"/>
        <path d="M15.5114 12.6758C15.2514 14.0858 14.1014 15.2358 12.6914 15.4958"
              stroke="currentColor" stroke-width="1.5" stroke-linecap="round"
              stroke-linejoin="round"/>
        <path d="M9.47 14.5059L2 21.9759" stroke="currentColor"
              stroke-width="1.5"
              stroke-linecap="round" stroke-linejoin="round"/>
        <path d="M22.0013 1.97656L14.5312 9.44656" stroke="currentColor"
              stroke-width="1.5" stroke-linecap="round"
              stroke-linejoin="round"/>
    </symbol>

    <symbol fill="none" xmlns="http://www.w3.org/2000/svg" viewBox="0 0 24 24"
            id="receive-square">
        <path d="M9 22H15C20 22 22 20 22 15V9C22 4 20 2 15 2H9C4 2 2 4 2 9V15C2 20 4 22 9 22Z"
              stroke="currentColor" stroke-width="1.125" stroke-linecap="round"
              stroke-linejoin="round"/>
        <path d="M9 11.5078L12 14.5078L15 11.5078" stroke="currentColor"
              stroke-width="1.125" stroke-linecap="round"
              stroke-linejoin="round"/>
        <path d="M12 14.5078V6.50781" stroke="currentColor" stroke-width="1.125"
              stroke-linecap="round" stroke-linejoin="round"/>
        <path d="M6 16.5078C9.89 17.8078 14.11 17.8078 18 16.5078"
              stroke="currentColor" stroke-width="1.125" stroke-linecap="round"
              stroke-linejoin="round"/>
    </symbol>

    <symbol fill="none" xmlns="http://www.w3.org/2000/svg" viewBox="0 0 24 24"
            id="search-normal">
        <path d="M11.5 21C16.7467 21 21 16.7467 21 11.5C21 6.25329 16.7467 2 11.5 2C6.25329 2 2 6.25329 2 11.5C2 16.7467 6.25329 21 11.5 21Z"
              stroke="currentColor" stroke-width="1.5" stroke-linecap="round"
              stroke-linejoin="round"/>
        <path d="M22 22L20 20" stroke="currentColor" stroke-width="1.5"
              stroke-linecap="round" stroke-linejoin="round"/>
    </symbol>

    <symbol fill="none" xmlns="http://www.w3.org/2000/svg" viewBox="0 0 24 24"
            id="search-zoom-in">
        <circle cx="11.9995" cy="11.9995" r="11.9995" fill="currentColor"/>
        <path d="M10.5894 11.6992H12.8079" stroke="#0A0A0C"
              stroke-width="0.887417" stroke-linecap="round"
              stroke-linejoin="round"/>
        <path d="M11.6987 12.8084V10.5898" stroke="#0A0A0C"
              stroke-width="0.887417" stroke-linecap="round"
              stroke-linejoin="round"/>
        <path d="M11.6098 15.825C13.9378 15.825 15.825 13.9378 15.825 11.6098C15.825 9.28175 13.9378 7.39453 11.6098 7.39453C9.28175 7.39453 7.39453 9.28175 7.39453 11.6098C7.39453 13.9378 9.28175 15.825 11.6098 15.825Z"
              stroke="#0A0A0C" stroke-width="0.887417" stroke-linecap="round"
              stroke-linejoin="round"/>
        <path d="M16.2688 16.2683L15.3813 15.3809" stroke="#0A0A0C"
              stroke-width="0.887417" stroke-linecap="round"
              stroke-linejoin="round"/>
    </symbol>

    <symbol fill="none" xmlns="http://www.w3.org/2000/svg" viewBox="0 0 12 13"
            id="arrow">
        <path d="M0.758091 9.22028C0.335017 9.57529 0.279833 10.206 0.634834 10.6291C0.989836 11.0522 1.62059 11.1074 2.04367 10.7524L0.758091 9.22028ZM11.7323 2.24027C11.7805 1.69009 11.3735 1.20506 10.8233 1.15692L1.85754 0.372521C1.30736 0.324387 0.822323 0.731377 0.774188 1.28156C0.726053 1.83174 1.13304 2.31678 1.68323 2.36491L9.65279 3.06216L8.95554 11.0317C8.9074 11.5819 9.31439 12.0669 9.86458 12.1151C10.4148 12.1632 10.8998 11.7562 10.9479 11.206L11.7323 2.24027ZM2.04367 10.7524L11.3789 2.91916L10.0933 1.38707L0.758091 9.22028L2.04367 10.7524Z"
              fill="currentColor"/>
    </symbol>

    <symbol fill="none" xmlns="http://www.w3.org/2000/svg" viewBox="0 0 16 16"
            id="arrow-down">
        <path d="M13.2797 5.9668L8.93306 10.3135C8.93306 10.3135 7.57973 10.8268 7.06639 10.3135L2.71973 5.9668"
              stroke="currentColor" stroke-width="1.5" stroke-miterlimit="10"
              stroke-linecap="round" stroke-linejoin="round"/>
    </symbol>

    <symbol fill="none" xmlns="http://www.w3.org/2000/svg" viewBox="0 0 25 25"
            id="arrow-left">
        <path d="M8.58491 11.6265C8.28803 11.9234 8.28803 12.4047 8.58491 12.7016L13.4228 17.5395C13.7197 17.8364 14.2011 17.8364 14.4979 17.5395C14.7948 17.2427 14.7948 16.7613 14.4979 16.4644L10.1976 12.1641L14.4979 7.86369C14.7948 7.56681 14.7948 7.08547 14.4979 6.78859C14.2011 6.49171 13.7197 6.49171 13.4228 6.78859L8.58491 11.6265ZM9.12256 11.4039H9.12246V12.9243H9.12256V11.4039Z"
              fill="currentColor"/>
    </symbol>

    <symbol fill="none" xmlns="http://www.w3.org/2000/svg" viewBox="0 0 25 25"
            id="arrow-right">
        <path d="M16.4151 11.6265C16.712 11.9234 16.712 12.4047 16.4151 12.7016L11.5772 17.5395C11.2803 17.8364 10.7989 17.8364 10.5021 17.5395C10.2052 17.2427 10.2052 16.7613 10.5021 16.4644L14.8024 12.1641L10.5021 7.86369C10.2052 7.56681 10.2052 7.08547 10.5021 6.78859C10.7989 6.49171 11.2803 6.49171 11.5772 6.78859L16.4151 11.6265ZM15.8774 11.4039H15.8775V12.9243H15.8774V11.4039Z"
              fill="currentColor"/>
    </symbol>

    <symbol fill="none" xmlns="http://www.w3.org/2000/svg" viewBox="0 0 103 94"
            id="logo">
        <path d="M27.4198 26.4735C19.2985 21.1324 5.77207 11.0498 2.35939 0.943359C0.471174 3.9667 -2.34013 10.421 3.50548 15.8772C9.54849 21.5181 18.666 26.7404 23.563 29.3525C24.609 29.9151 25.5081 30.7158 26.1876 31.69C26.8671 32.6642 27.308 33.7845 27.4746 34.9605C27.7644 37.0832 28.2541 39.1738 28.937 41.2045C29.1709 41.8905 29.4456 42.5619 29.7595 43.2152C29.1946 39.486 29.2057 35.6922 29.7924 31.9664C29.9694 30.9194 29.8405 29.8435 29.4213 28.868C29.0021 27.8924 28.3103 27.0585 27.4289 26.4662L27.4198 26.4735ZM19.0773 43.6704C22.3675 46.5054 26.919 46.8418 29.5402 46.7595C28.5868 45.5084 27.8213 44.1247 27.2681 42.6522C25.411 42.6193 20.408 42.3525 15.8712 40.4789C16.8543 41.6253 17.9264 42.6925 19.0773 43.6704ZM13.6868 36.962C13.8396 37.0199 13.9741 37.1178 14.0762 37.2453C14.3467 37.4281 14.6246 37.5944 14.9188 37.759C18.9402 39.9652 24.1095 40.4624 26.557 40.5721C26.2408 39.4918 25.9941 38.4079 25.793 37.355C20.1571 36.1677 14.7146 34.1989 9.62344 31.5057C10.4141 33.6843 11.827 35.5828 13.6868 36.9657V36.962ZM9.77881 29.2501C14.697 31.924 19.9576 33.9128 25.4146 35.1615C25.2896 34.3223 24.9697 33.5241 24.4805 32.8308C23.9914 32.1375 23.3466 31.5685 22.5978 31.1694C17.8965 28.6634 9.37667 23.7737 3.20205 18.3741C3.11614 21.0776 3.8546 26.0074 9.78246 29.2574L9.77881 29.2501Z"
              fill="currentColor"/>
        <path d="M75.1105 26.4735C83.2374 21.1324 96.7619 11.0498 100.173 0.943359C102.063 3.9667 104.872 10.421 99.0267 15.8772C92.9818 21.5181 83.8661 26.7404 78.9692 29.3525C77.9232 29.9151 77.0241 30.7158 76.3446 31.69C75.6651 32.6642 75.2242 33.7845 75.0575 34.9605C74.7707 37.0829 74.2842 39.1735 73.6044 41.2045C73.3696 41.8902 73.0949 42.5616 72.7818 43.2152C73.3448 39.4859 73.3338 35.6923 72.7489 31.9664C72.5722 30.9196 72.701 29.844 73.1198 28.8686C73.5387 27.8931 74.2298 27.059 75.1105 26.4662V26.4735ZM83.4567 43.6704C80.1665 46.5054 75.615 46.8418 72.9938 46.7595C73.9467 45.5083 74.7115 44.1246 75.2641 42.6522C77.1212 42.6193 82.126 42.3525 86.661 40.4789C85.6789 41.6257 84.6075 42.6929 83.4567 43.6704ZM88.8472 36.962C88.6944 37.0199 88.5599 37.1178 88.4578 37.2453C88.1855 37.4281 87.9094 37.5944 87.6152 37.759C83.5938 39.9652 78.4245 40.4624 75.9751 40.5721C76.2914 39.4918 76.5381 38.4079 76.7392 37.355C82.3758 36.168 87.8189 34.1992 92.9106 31.5057C92.1205 33.6856 90.7076 35.5855 88.8472 36.9693V36.962ZM92.7552 29.2501C87.8365 31.9243 82.5752 33.9132 77.1176 35.1615C77.2435 34.3224 77.5639 33.5243 78.0534 32.8311C78.5428 32.138 79.1876 31.5689 79.9362 31.1694C84.6357 28.6634 93.1573 23.7737 99.3319 18.3741C99.4179 21.0776 98.6794 26.0074 92.7515 29.2574L92.7552 29.2501Z"
              fill="currentColor"/>
        <path d="M68.5739 27.3703L64.1065 29.9696C63.9925 30.0361 63.8629 30.0711 63.7309 30.0711C63.5989 30.0711 63.4693 30.0361 63.3553 29.9696L51.8797 23.2722C51.7661 23.2057 51.6367 23.1706 51.505 23.1706C51.3733 23.1706 51.244 23.2057 51.1303 23.2722L39.5543 29.9513C39.4422 30.0179 39.3495 30.1127 39.2854 30.2262C39.2212 30.3397 39.1879 30.468 39.1887 30.5984V43.8981C39.1885 44.0299 39.2233 44.1594 39.2894 44.2734C39.3556 44.3874 39.4507 44.4818 39.5652 44.547L42.5429 46.247C42.657 46.3122 42.7519 46.4064 42.818 46.52C42.8841 46.6336 42.9191 46.7626 42.9194 46.894V52.1456C42.9194 52.2763 42.8851 52.4048 42.8198 52.5181C42.7545 52.6314 42.6606 52.7255 42.5475 52.791C42.4344 52.8566 42.306 52.8912 42.1752 52.8915C42.0445 52.8918 41.916 52.8577 41.8026 52.7927L33.5387 48.0767C33.4242 48.0114 33.329 47.917 33.2628 47.803C33.1967 47.689 33.1619 47.5596 33.1621 47.4278V27.0815C33.1621 26.9502 33.1967 26.8212 33.2625 26.7076C33.3283 26.594 33.4229 26.4998 33.5368 26.4344L51.1394 16.3463C51.2528 16.2807 51.3814 16.2461 51.5123 16.2461C51.6433 16.2461 51.7719 16.2807 51.8852 16.3463L68.583 26.0743C68.6969 26.1403 68.7914 26.2353 68.8567 26.3495C68.9221 26.4638 68.956 26.5933 68.9551 26.725C68.9541 26.8566 68.9184 26.9857 68.8514 27.099C68.7845 27.2124 68.6887 27.306 68.5739 27.3703Z"
              fill="currentColor"/>
        <path d="M45.9244 29.1664L50.2876 26.6439C50.4009 26.5784 50.5295 26.544 50.6603 26.5439C50.7912 26.5439 50.9197 26.5783 51.0331 26.6437C51.1464 26.7091 51.2406 26.8031 51.3061 26.9164C51.3716 27.0297 51.4061 27.1582 51.4063 27.2891V50.0665C51.4063 50.1965 51.4403 50.3242 51.505 50.437C51.5696 50.5498 51.6626 50.6437 51.7747 50.7095C51.8869 50.7752 52.0142 50.8105 52.1442 50.8119C52.2742 50.8133 52.4023 50.7806 52.5158 50.7172L63.3004 44.6852C63.4165 44.6207 63.5133 44.5264 63.5808 44.412C63.6483 44.2976 63.684 44.1673 63.6842 44.0344V41.1208C63.6837 40.9228 63.6047 40.7331 63.4646 40.5933C63.3244 40.4535 63.1346 40.375 62.9366 40.375H58.4382C58.2404 40.375 58.0507 40.2964 57.9108 40.1566C57.7709 40.0167 57.6924 39.827 57.6924 39.6292V34.7487C57.6924 34.5509 57.7709 34.3613 57.9108 34.2214C58.0507 34.0815 58.2404 34.003 58.4382 34.003H68.8334C69.0313 34.003 69.2212 34.0815 69.3614 34.2213C69.5015 34.3611 69.5805 34.5508 69.581 34.7487V47.5184C69.5814 47.6498 69.5469 47.7789 69.4811 47.8926C69.4153 48.0063 69.3204 48.1004 69.2063 48.1655L51.7846 58.1567C51.6703 58.2232 51.5404 58.2582 51.4081 58.2582C51.2758 58.2582 51.1459 58.2232 51.0315 58.1567L45.9134 55.1224C45.8022 55.0563 45.71 54.9624 45.6459 54.8499C45.5818 54.7375 45.548 54.6103 45.5479 54.4809V29.8134C45.5482 29.682 45.5832 29.553 45.6493 29.4394C45.7154 29.3258 45.8103 29.2316 45.9244 29.1664Z"
              fill="currentColor"/>
        <path d="M16.4521 78.6306V68.5771H17.5178V77.7166H23.1514V78.6306H16.4521Z"
              fill="white"/>
        <path d="M26.4156 77.7166H32.466V78.6306H25.3518V68.5771H32.2503V69.4911H26.4156V77.7166ZM26.3005 73.0756H31.6178V73.9804H26.3005V73.0756Z"
              fill="white"/>
        <path d="M39.0613 78.7161C38.3368 78.7236 37.6173 78.594 36.941 78.3341C36.3143 78.0941 35.7424 77.7305 35.2593 77.2648C34.7842 76.8034 34.4074 76.2506 34.1516 75.6398C33.6252 74.3301 33.6252 72.8677 34.1516 71.5581C34.4087 70.9461 34.7882 70.3932 35.2666 69.9331C35.7539 69.4691 36.3278 69.1057 36.9556 68.8638C37.632 68.6039 38.3514 68.4743 39.0759 68.4818C39.7942 68.4755 40.5076 68.5993 41.1817 68.8473C41.8042 69.079 42.3629 69.4548 42.8122 69.9441L42.1505 70.6204C41.76 70.218 41.2839 69.9088 40.7576 69.7156C40.2294 69.5291 39.6727 69.4363 39.1125 69.4414C38.526 69.4353 37.9437 69.5401 37.3961 69.7503C36.8905 69.9464 36.4292 70.2414 36.039 70.6181C35.6489 70.9947 35.3378 71.4454 35.124 71.9438C34.6927 73.0063 34.6927 74.1952 35.124 75.2577C35.3358 75.7579 35.6467 76.2099 36.038 76.5866C36.4297 76.9677 36.894 77.2661 37.4034 77.464C37.9459 77.6741 38.5235 77.779 39.1052 77.7729C39.6599 77.7765 40.2113 77.6888 40.7375 77.5134C41.2681 77.3298 41.7513 77.0307 42.1523 76.6378L42.7555 77.4421C42.2656 77.8705 41.6942 78.1957 41.0757 78.3981C40.426 78.613 39.7456 78.7204 39.0613 78.7161ZM41.7337 77.3068V73.598H42.7537V77.4366L41.7337 77.3068Z"
              fill="white"/>
        <path d="M47.0962 77.7166H53.1465V78.6306H46.0342V68.5771H52.9326V69.4911H47.0962V77.7166ZM46.981 73.0756H52.2984V73.9804H46.981V73.0756Z"
              fill="white"/>
        <path d="M56.0342 78.6306V68.5771H56.9097L63.8557 77.3163H63.3969V68.5771H64.4461V78.6306H63.5706L56.6337 69.8914H57.0925V78.6306H56.0342Z"
              fill="white"/>
        <path d="M67.8066 78.63V68.5766H71.903C72.8825 68.5553 73.8523 68.775 74.727 69.2164C75.5107 69.6195 76.1655 70.2345 76.6171 70.9913C77.0595 71.7924 77.2916 72.6927 77.2916 73.6079C77.2916 74.5231 77.0595 75.4234 76.6171 76.2245C76.1652 76.9774 75.5118 77.589 74.7307 77.9903C73.8559 78.4316 72.8862 78.6513 71.9066 78.63H67.8066ZM68.8686 77.7161H71.8445C72.6498 77.7367 73.4476 77.5564 74.1659 77.1915C74.8021 76.8611 75.3324 76.3581 75.6958 75.7401C76.0544 75.0846 76.2423 74.3495 76.2423 73.6024C76.2423 72.8553 76.0544 72.1201 75.6958 71.4647C75.3303 70.8502 74.8004 70.3501 74.1659 70.0206C73.4476 69.6557 72.6498 69.4754 71.8445 69.496H68.8686V77.7161Z"
              fill="white"/>
        <path d="M82.5134 78.7172C81.7818 78.7206 81.055 78.5969 80.3657 78.3516C79.7712 78.1634 79.2278 77.8413 78.7772 77.4103L79.194 76.5914C79.6083 76.973 80.0941 77.2687 80.6234 77.4615C81.2258 77.6959 81.867 77.815 82.5134 77.8124C83.0384 77.8299 83.5621 77.7499 84.058 77.5766C84.4069 77.4542 84.7121 77.2317 84.9354 76.9369C85.1193 76.6759 85.2171 76.3641 85.2151 76.0448C85.2317 75.6968 85.1109 75.3561 84.8787 75.0962C84.6305 74.8428 84.328 74.6491 83.994 74.5295C83.6001 74.382 83.1972 74.2599 82.7876 74.1639C82.3453 74.0604 81.9041 73.9476 81.4642 73.8258C81.0421 73.7139 80.6347 73.5525 80.2505 73.345C79.8936 73.1547 79.5877 72.8814 79.3585 72.5481C79.117 72.1583 78.9992 71.7046 79.0203 71.2466C79.0164 70.7602 79.1543 70.2832 79.417 69.8739C79.715 69.4277 80.1369 69.0783 80.6307 68.8685C81.2945 68.5914 82.0103 68.4611 82.7291 68.4865C83.298 68.4876 83.8639 68.5676 84.4108 68.7241C84.9224 68.8617 85.4079 69.0828 85.8475 69.3785L85.4819 70.2267C85.0615 69.9431 84.5979 69.7295 84.1092 69.5942C83.6532 69.4635 83.1815 69.3958 82.7072 69.3931C82.1983 69.3766 81.6911 69.4592 81.2138 69.6363C80.8664 69.7653 80.5641 69.9926 80.3437 70.2906C80.1577 70.5636 80.06 70.8871 80.0641 71.2174C80.0474 71.5655 80.1682 71.9062 80.4004 72.1661C80.6491 72.4211 80.9548 72.6135 81.2924 72.7272C81.6897 72.8722 82.0949 72.9942 82.5061 73.0928C82.9473 73.1988 83.386 73.314 83.8222 73.4383C84.2404 73.5558 84.6448 73.7176 85.0286 73.9208C85.3848 74.1057 85.6908 74.3742 85.9206 74.7032C86.1608 75.0853 86.2781 75.5319 86.257 75.9827C86.259 76.4651 86.1192 76.9374 85.8548 77.3408C85.551 77.7875 85.1244 78.1366 84.6265 78.3462C83.9566 78.6188 83.2362 78.7453 82.5134 78.7172Z"
              fill="white"/>
        <path d="M29.5478 93.2535C28.8079 93.2611 28.0732 93.1296 27.3818 92.866C26.7416 92.6187 26.1574 92.2458 25.6635 91.7693C25.1785 91.2983 24.7942 90.7336 24.5339 90.1096C23.9952 88.7719 23.9952 87.2777 24.5339 85.9401C24.7949 85.3147 25.1819 84.7497 25.6708 84.2804C26.1683 83.8049 26.7547 83.4322 27.3964 83.1837C28.0877 82.9195 28.8224 82.7874 29.5624 82.7943C30.2957 82.7861 31.0245 82.9099 31.7139 83.1599C32.35 83.3953 32.9212 83.778 33.3809 84.2768L32.7046 84.9659C32.3047 84.5554 31.8182 84.2394 31.2807 84.041C30.7426 83.8528 30.1762 83.7588 29.6063 83.7631C29.0068 83.7563 28.4114 83.863 27.8515 84.0775C27.3313 84.2804 26.8571 84.5856 26.4568 84.975C26.0611 85.3587 25.7465 85.8181 25.5319 86.3258C25.0909 87.4105 25.0909 88.6246 25.5319 89.7093C25.7455 90.2197 26.0601 90.6817 26.4568 91.0674C26.8567 91.4568 27.3311 91.7615 27.8515 91.963C28.4061 92.1784 28.9968 92.2857 29.5917 92.2793C30.158 92.2825 30.721 92.1936 31.2587 92.0161C31.8007 91.8275 32.2944 91.5217 32.7046 91.1204L33.3224 91.9411C32.8207 92.3786 32.2365 92.7111 31.6042 92.919C30.9414 93.1414 30.2469 93.2543 29.5478 93.2535ZM32.2787 91.815V88.0312H33.3224V91.9521L32.2787 91.815Z"
              fill="white"/>
        <path d="M36.1692 93.1707V82.8924H40.0169C40.7868 82.8727 41.5523 83.0153 42.2634 83.311C42.8543 83.5591 43.3578 83.9779 43.7092 84.5138C44.0587 85.0855 44.2335 85.7469 44.2119 86.4166C44.23 87.0766 44.054 87.7275 43.7056 88.2884C43.3542 88.8248 42.8508 89.2442 42.2597 89.493C41.5483 89.7877 40.7831 89.9303 40.0132 89.9115H36.7724L37.2659 89.4144V93.1725L36.1692 93.1707ZM37.2659 89.5003L36.7815 88.9866H39.9986C41.0259 88.9866 41.8064 88.7612 42.3402 88.3103C42.8739 87.8594 43.1408 87.2282 43.1408 86.4166C43.1408 85.5941 42.8739 84.9573 42.3402 84.5065C41.8064 84.0556 41.0259 83.8307 39.9986 83.832H36.7724L37.2568 83.3183L37.2659 89.5003ZM43.1993 93.1707L40.5561 89.4418H41.7315L44.3892 93.1707H43.1993Z"
              fill="white"/>
        <path d="M51.0631 93.2534C50.328 93.2601 49.5982 93.1286 48.9117 92.8658C48.2705 92.6206 47.6859 92.2474 47.1935 91.7691C46.7104 91.296 46.3258 90.7319 46.062 90.1094C45.5234 88.7768 45.5234 87.2872 46.062 85.9546C46.3277 85.3288 46.7161 84.7626 47.2043 84.2895C47.6925 83.8163 48.2706 83.4459 48.9044 83.1999C50.2917 82.6807 51.8199 82.6807 53.2072 83.1999C53.8445 83.4487 54.426 83.8215 54.9182 84.2967C55.4032 84.7677 55.7875 85.3324 56.0478 85.9564C56.5865 87.294 56.5865 88.7882 56.0478 90.1258C55.7875 90.7499 55.4032 91.3145 54.9182 91.7856C54.426 92.2607 53.8445 92.6335 53.2072 92.8823C52.5223 93.1398 51.7948 93.2657 51.0631 93.2534ZM51.0631 92.2846C51.6485 92.2909 52.2296 92.1835 52.774 91.9683C53.2854 91.7659 53.7501 91.4611 54.1395 91.0727C54.5259 90.6858 54.8327 90.2268 55.0424 89.7219C55.4738 88.6328 55.4738 87.4202 55.0424 86.3311C54.8331 85.8259 54.5263 85.3669 54.1395 84.9803C53.7497 84.5919 53.2852 84.2866 52.774 84.0828C51.6694 83.6637 50.4495 83.6637 49.3449 84.0828C48.8305 84.2845 48.3632 84.59 47.9722 84.9803C47.1697 85.7911 46.7196 86.8857 46.7196 88.0265C46.7196 89.1672 47.1697 90.2619 47.9722 91.0727C48.363 91.4628 48.8304 91.7678 49.3449 91.9683C49.8916 92.1852 50.475 92.2944 51.0631 92.2901V92.2846Z"
              fill="white"/>
        <path d="M62.9945 93.2531C61.6845 93.2531 60.6518 92.8765 59.8963 92.1234C59.1407 91.3703 58.7642 90.2541 58.7666 88.7747V82.8926H59.8524V88.7418C59.8524 89.9604 60.1266 90.8561 60.6749 91.4288C61.2233 92.0016 61.9965 92.2904 62.9945 92.2953C64.0035 92.2953 64.7822 92.0065 65.3306 91.4288C65.8789 90.8512 66.1531 89.9556 66.1531 88.7418V82.8926H67.2097V88.7802C67.2097 90.2596 66.8355 91.3758 66.0873 92.1289C65.3391 92.882 64.3082 93.2567 62.9945 93.2531Z"
              fill="white"/>
        <path d="M70.4464 93.1707V82.8924H74.2941C75.064 82.8727 75.8295 83.0153 76.5406 83.311C77.1313 83.5595 77.6346 83.9782 77.9865 84.5138C78.3372 85.0851 78.5132 85.7465 78.4928 86.4166C78.5109 87.0766 78.3348 87.7275 77.9865 88.2884C77.634 88.8256 77.1312 89.2471 76.5406 89.5003C75.8305 89.8002 75.0647 89.9454 74.2941 89.9262H71.0478L71.5322 89.4125V93.1707H70.4464ZM71.5322 89.5003L71.0478 88.972H74.2649C75.2922 88.972 76.0727 88.749 76.6064 88.303C77.1402 87.857 77.407 87.2282 77.407 86.4166C77.407 85.5941 77.1402 84.9573 76.6064 84.5065C76.0727 84.0556 75.2922 83.8307 74.2649 83.832H71.0478L71.5322 83.3183V89.5003Z"
              fill="white"/>
    </symbol>

    <symbol fill="none" xmlns="http://www.w3.org/2000/svg" viewBox="0 0 22 22"
            id="account">
        <path d="M17.1396 20.6198C16.2596 20.8798 15.2196 20.9998 13.9996 20.9998H7.99962C6.77962 20.9998 5.73962 20.8798 4.85962 20.6198C5.07962 18.0198 7.74962 15.9697 10.9996 15.9697C14.2496 15.9697 16.9196 18.0198 17.1396 20.6198Z"
              stroke="currentColor" stroke-width="1.35629"
              stroke-linecap="round" stroke-linejoin="round"/>
        <path d="M14 1H8C3 1 1 3 1 8V14C1 17.78 2.14 19.85 4.86 20.62C5.08 18.02 7.75 15.97 11 15.97C14.25 15.97 16.92 18.02 17.14 20.62C19.86 19.85 21 17.78 21 14V8C21 3 19 1 14 1ZM11 13.17C9.02 13.17 7.42 11.56 7.42 9.58002C7.42 7.60002 9.02 6 11 6C12.98 6 14.58 7.60002 14.58 9.58002C14.58 11.56 12.98 13.17 11 13.17Z"
              stroke="currentColor" stroke-width="1.35629"
              stroke-linecap="round" stroke-linejoin="round"/>
        <path d="M14.5797 9.58002C14.5797 11.56 12.9797 13.17 10.9997 13.17C9.01968 13.17 7.41968 11.56 7.41968 9.58002C7.41968 7.60002 9.01968 6 10.9997 6C12.9797 6 14.5797 7.60002 14.5797 9.58002Z"
              stroke="currentColor" stroke-width="1.35629"
              stroke-linecap="round" stroke-linejoin="round"/>
    </symbol>

    <symbol fill="none" xmlns="http://www.w3.org/2000/svg" viewBox="0 0 22 22"
            id="news">

        <path d="M9.11005 10.1494H6.46005C5.83005 10.1494 5.32007 10.6594 5.32007 11.2894V16.4094H9.11005V10.1494V10.1494Z"
              stroke="currentColor" stroke-width="1.35629"
              stroke-miterlimit="10"
              stroke-linecap="round" stroke-linejoin="round"/>
        <path d="M11.7613 5.59961H10.2413C9.6113 5.59961 9.10132 6.10962 9.10132 6.73962V16.3997H12.8913V6.73962C12.8913 6.10962 12.3913 5.59961 11.7613 5.59961Z"
              stroke="currentColor" stroke-width="1.35629"
              stroke-miterlimit="10" stroke-linecap="round"
              stroke-linejoin="round"/>
        <path d="M15.5482 11.8496H12.8982V16.3997H16.6882V12.9896C16.6782 12.3596 16.1682 11.8496 15.5482 11.8496Z"
              stroke="currentColor" stroke-width="1.35629"
              stroke-miterlimit="10" stroke-linecap="round"
              stroke-linejoin="round"/>
        <path d="M8 21H14C19 21 21 19 21 14V8C21 3 19 1 14 1H8C3 1 1 3 1 8V14C1 19 3 21 8 21Z"
              stroke="currentColor" stroke-width="1.35629"
              stroke-linecap="round" stroke-linejoin="round"/>
    </symbol>

    <symbol fill="none" xmlns="http://www.w3.org/2000/svg" viewBox="0 0 22 22"
            id="venture-deals">
        <path d="M8.02 1.83626L2.63 6.03626C1.73 6.73626 1 8.22626 1 9.35626V16.7663C1 19.0863 2.89 20.9863 5.21 20.9863H16.79C19.11 20.9863 21 19.0863 21 16.7763V9.49626C21 8.28626 20.19 6.73626 19.2 6.04626L13.02 1.71626C11.62 0.736256 9.37 0.786256 8.02 1.83626Z"
              stroke="currentColor" stroke-width="1.35629"
              stroke-linecap="round" stroke-linejoin="round"/>
        <path d="M15.5 10.4961L11.3 14.6961L9.7 12.2961L6.5 15.4961"
              stroke="currentColor" stroke-width="1.35629"
              stroke-linecap="round" stroke-linejoin="round"/>
        <path d="M13.5 10.4961H15.5V12.4961" stroke="currentColor"
              stroke-width="1.35629" stroke-linecap="round"
              stroke-linejoin="round"/>
    </symbol>

    <symbol fill="none" xmlns="http://www.w3.org/2000/svg" viewBox="0 0 22 22"
            id="nodes">
        <path d="M4 9H6C8 9 9 8 9 6V4C9 2 8 1 6 1H4C2 1 1 2 1 4V6C1 8 2 9 4 9Z"
              stroke="currentColor" stroke-width="1.35629"
              stroke-miterlimit="10" stroke-linecap="round"
              stroke-linejoin="round"/>
        <path d="M16 9H18C20 9 21 8 21 6V4C21 2 20 1 18 1H16C14 1 13 2 13 4V6C13 8 14 9 16 9Z"
              stroke="currentColor" stroke-width="1.35629"
              stroke-miterlimit="10" stroke-linecap="round"
              stroke-linejoin="round"/>
        <path d="M16 21H18C20 21 21 20 21 18V16C21 14 20 13 18 13H16C14 13 13 14 13 16V18C13 20 14 21 16 21Z"
              stroke="currentColor" stroke-width="1.35629"
              stroke-miterlimit="10" stroke-linecap="round"
              stroke-linejoin="round"/>
        <path d="M4 21H6C8 21 9 20 9 18V16C9 14 8 13 6 13H4C2 13 1 14 1 16V18C1 20 2 21 4 21Z"
              stroke="currentColor" stroke-width="1.35629"
              stroke-miterlimit="10" stroke-linecap="round"
              stroke-linejoin="round"/>
    </symbol>

    <symbol fill="none" xmlns="http://www.w3.org/2000/svg" viewBox="0 0 22 22"
            id="auto-drops">
        <path d="M11 21C16.5228 21 21 16.5228 21 11C21 5.47715 16.5228 1 11 1C5.47715 1 1 5.47715 1 11C1 16.5228 5.47715 21 11 21Z"
              stroke="currentColor" stroke-width="1.35629"
              stroke-linecap="round"
              stroke-linejoin="round"/>
        <path d="M7.68011 10.9098L9.33011 11.3198L8.38013 15.1599C8.16013 16.0599 8.60011 16.3598 9.36011 15.8298L14.5401 12.2398C15.1701 11.7998 15.0801 11.2898 14.3301 11.0998L12.6801 10.6898L13.6301 6.84981C13.8501 5.94981 13.4101 5.64983 12.6501 6.17983L7.47012 9.76986C6.84012 10.2099 6.93011 10.7198 7.68011 10.9098Z"
              stroke="currentColor" stroke-width="1.35629"
              stroke-miterlimit="10"
              stroke-linecap="round" stroke-linejoin="round"/>
    </symbol>

    <symbol fill="none" xmlns="http://www.w3.org/2000/svg" viewBox="0 0 22 22"
            id="academy">
        <path d="M9.0488 1.53321L3.0288 5.46321C1.0988 6.72321 1.0988 9.54321 3.0288 10.8032L9.0488 14.7332C10.1288 15.4432 11.9088 15.4432 12.9888 14.7332L18.9788 10.8032C20.8988 9.54321 20.8988 6.73321 18.9788 5.47321L12.9888 1.54321C11.9088 0.82321 10.1288 0.82321 9.0488 1.53321Z"
              stroke="currentColor" stroke-width="1.35629"
              stroke-linecap="round" stroke-linejoin="round"/>
        <path d="M4.6289 12.083L4.6189 16.773C4.6189 18.043 5.5989 19.403 6.7989 19.803L9.9889 20.863C10.5389 21.043 11.4489 21.043 12.0089 20.863L15.1989 19.803C16.3989 19.403 17.3789 18.043 17.3789 16.773V12.133"
              stroke="currentColor" stroke-width="1.35629"
              stroke-linecap="round" stroke-linejoin="round"/>
        <path d="M20.3987 14.0029V8.00293" stroke="currentColor"
              stroke-width="1.35629" stroke-linecap="round"
              stroke-linejoin="round"/>

    </symbol>

    <symbol fill="none" xmlns="http://www.w3.org/2000/svg" viewBox="0 0 22 22"
            id="academy-business">
        <path d="M7.00007 21H15.0001C19.0201 21 19.7401 19.39 19.9501 17.43L20.7001 9.43C20.9701 6.99 20.2701 5 16.0001 5H6.00007C1.73007 5 1.03007 6.99 1.30007 9.43L2.05007 17.43C2.26007 19.39 2.98007 21 7.00007 21Z"
              stroke="currentColor" stroke-width="1.35629"
              stroke-miterlimit="10" stroke-linecap="round"
              stroke-linejoin="round"/>
        <path d="M7 5V4.2C7 2.43 7 1 10.2 1H11.8C15 1 15 2.43 15 4.2V5"
              stroke="currentColor" stroke-width="1.35629"
              stroke-miterlimit="10" stroke-linecap="round"
              stroke-linejoin="round"/>
        <path d="M13 12V13C13 13.01 13 13.01 13 13.02C13 14.11 12.99 15 11 15C9.02 15 9 14.12 9 13.03V12C9 11 9 11 10 11H12C13 11 13 11 13 12Z"
              stroke="currentColor" stroke-width="1.35629"
              stroke-miterlimit="10" stroke-linecap="round"
              stroke-linejoin="round"/>
        <path d="M20.65 10C18.34 11.68 15.7 12.68 13 13.02"
              stroke="currentColor" stroke-width="1.35629"
              stroke-miterlimit="10" stroke-linecap="round"
              stroke-linejoin="round"/>
        <path d="M1.62012 10.2705C3.87012 11.8105 6.41012 12.7405 9.00012 13.0305"
              stroke="currentColor" stroke-width="1.35629"
              stroke-miterlimit="10" stroke-linecap="round"
              stroke-linejoin="round"/>
    </symbol>

    <symbol fill="none" xmlns="http://www.w3.org/2000/svg" viewBox="0 0 22 22"
            id="events">
        <path d="M11 21C16.5228 21 21 16.5228 21 11C21 5.47715 16.5228 1 11 1C5.47715 1 1 5.47715 1 11C1 16.5228 5.47715 21 11 21Z"
              stroke="currentColor" stroke-width="1.5" stroke-linecap="round"
              stroke-linejoin="round"/>
        <path d="M7.0001 2H8.0001C6.0501 7.84 6.0501 14.16 8.0001 20H7.0001"
              stroke="currentColor" stroke-width="1.5" stroke-linecap="round"
              stroke-linejoin="round"/>
        <path d="M14 2C15.95 7.84 15.95 14.16 14 20" stroke="currentColor"
              stroke-width="1.5" stroke-linecap="round"
              stroke-linejoin="round"/>
        <path d="M2 15V14C7.84 15.95 14.16 15.95 20 14V15" stroke="currentColor"
              stroke-width="1.5" stroke-linecap="round"
              stroke-linejoin="round"/>
        <path d="M2 7.99961C7.84 6.04961 14.16 6.04961 20 7.99961"
              stroke="currentColor" stroke-width="1.5" stroke-linecap="round"
              stroke-linejoin="round"/>
    </symbol>

    <symbol fill="none" xmlns="http://www.w3.org/2000/svg" viewBox="0 0 24 24"
            id="promo">
        <path d="M13.01 2.92031L18.91 5.54031C20.61 6.29031 20.61 7.53031 18.91 8.28031L13.01 10.9003C12.34 11.2003 11.24 11.2003 10.57 10.9003L4.67002 8.28031C2.97002 7.53031 2.97002 6.29031 4.67002 5.54031L10.57 2.92031C11.24 2.62031 12.34 2.62031 13.01 2.92031Z"
              stroke="currentColor" stroke-width="1.5" stroke-linecap="round"
              stroke-linejoin="round"/>
        <path d="M3 11C3 11.84 3.63 12.81 4.4 13.15L11.19 16.17C11.71 16.4 12.3 16.4 12.81 16.17L19.6 13.15C20.37 12.81 21 11.84 21 11"
              stroke="currentColor" stroke-width="1.5" stroke-linecap="round"
              stroke-linejoin="round"/>
        <path d="M3 16C3 16.93 3.55 17.77 4.4 18.15L11.19 21.17C11.71 21.4 12.3 21.4 12.81 21.17L19.6 18.15C20.45 17.77 21 16.93 21 16"
              stroke="currentColor" stroke-width="1.5" stroke-linecap="round"
              stroke-linejoin="round"/>
    </symbol>

    <symbol fill="none" xmlns="http://www.w3.org/2000/svg" viewBox="0 0 22 22"
            id="faq">
        <path d="M16 17.4356H12L7.54999 20.3956C6.88999 20.8356 6 20.3656 6 19.5656V17.4356C3 17.4356 1 15.4356 1 12.4356V6.43555C1 3.43555 3 1.43555 6 1.43555H16C19 1.43555 21 3.43555 21 6.43555V12.4356C21 15.4356 19 17.4356 16 17.4356Z"
              stroke="currentColor" stroke-width="1.5" stroke-miterlimit="10"
              stroke-linecap="round" stroke-linejoin="round"/>
        <path d="M11.0001 10.3652V10.1553C11.0001 9.47527 11.4201 9.11526 11.8401 8.82526C12.2501 8.54526 12.66 8.18527 12.66 7.52527C12.66 6.60527 11.9201 5.86523 11.0001 5.86523C10.0801 5.86523 9.34009 6.60527 9.34009 7.52527"
              stroke="currentColor" stroke-width="1.5" stroke-linecap="round"
              stroke-linejoin="round"/>
        <path d="M10.9955 12.7559H11.0045" stroke="currentColor"
              stroke-width="1.5" stroke-linecap="round"
              stroke-linejoin="round"/>
    </symbol>

    <symbol fill="none" xmlns="http://www.w3.org/2000/svg" viewBox="0 0 19 19"
            id="web">
        <path d="M9.72273 18.0483H8.67325C8.43712 18.02 8.19993 17.9962 7.9645 17.963C6.19858 17.7135 4.6373 17.0079 3.30096 15.829C1.72675 14.4388 0.742334 12.7089 0.380263 10.6348C0.321493 10.2983 0.287559 9.95754 0.242432 9.61855V8.56803C0.253276 8.50646 0.26622 8.44489 0.274266 8.38297C0.316945 8.05973 0.341782 7.73334 0.402652 7.41395C0.741751 5.63007 1.55125 4.09223 2.83115 2.80044C4.16958 1.44941 5.77739 0.598628 7.65595 0.275039C7.99354 0.216968 8.33497 0.182684 8.67465 0.137207H9.72413C9.96026 0.165543 10.1974 0.189331 10.4329 0.222565C12.1988 0.471991 13.7601 1.17724 15.0964 2.35651C16.6706 3.74672 17.655 5.47661 18.0171 7.55073C18.0759 7.88726 18.1098 8.22799 18.1549 8.56698V9.61646C18.1441 9.67802 18.1312 9.73959 18.1231 9.80151C18.0804 10.1248 18.0556 10.4511 17.9947 10.7705C17.6549 12.5551 16.845 14.0933 15.5648 15.3851C14.2264 16.7361 12.6186 17.5866 10.74 17.9105C10.4038 17.9686 10.0624 18.0028 9.72273 18.0483ZM5.32436 8.55718H13.0461C13.0461 8.51835 13.0461 8.48966 13.0461 8.46133C12.9869 7.40762 12.776 6.36795 12.4199 5.37446C12.3811 5.26741 12.3149 5.27126 12.2313 5.27126C10.2091 5.27126 8.18664 5.27068 6.16394 5.26951C6.0548 5.26951 5.99568 5.29505 5.96629 5.40944C5.81657 5.98875 5.63606 6.56107 5.51152 7.14598C5.41532 7.6039 5.38488 8.07827 5.32436 8.55718ZM5.3499 9.6259C5.3499 9.67593 5.34815 9.70496 5.3499 9.734C5.41013 10.7817 5.62005 11.8155 5.97329 12.8037C6.01527 12.9199 6.08558 12.9143 6.17409 12.9143C8.19096 12.9143 10.2076 12.915 12.224 12.9164C12.3422 12.9164 12.4028 12.8877 12.4339 12.7673C12.5973 12.1076 12.7837 11.4534 12.9278 10.7894C13.0086 10.4127 13.0205 10.0198 13.0646 9.6259H5.3499ZM6.4557 4.20849H11.8805C11.8798 4.19261 11.8772 4.17687 11.8728 4.16161C11.248 3.00963 10.4227 2.03991 9.30784 1.33151C9.21583 1.27274 9.15601 1.29093 9.07415 1.34236C8.40091 1.76425 7.80923 2.30403 7.32747 2.93582C7.02557 3.33287 6.76215 3.75826 6.4557 4.20849ZM11.8959 13.977H6.51587C6.51623 13.9928 6.51859 14.0084 6.52287 14.0236C7.14766 15.1755 7.9729 16.1453 9.08779 16.854C9.1798 16.9124 9.23962 16.8946 9.32148 16.8435C9.82981 16.5222 10.2926 16.1339 10.6973 15.6891C11.1708 15.174 11.5739 14.5982 11.8959 13.977ZM1.28526 8.55893H4.29377C4.34187 7.44282 4.5463 6.33897 4.90107 5.27966C4.82831 5.27651 4.77688 5.27231 4.72616 5.27196C3.96319 5.27196 3.20021 5.27511 2.43724 5.26881C2.31236 5.26881 2.25498 5.31359 2.19971 5.41924C1.89612 5.98987 1.66776 6.59745 1.52035 7.22679C1.42135 7.66058 1.36363 8.10346 1.28526 8.55893ZM17.0743 8.56068C17.0743 8.51905 17.0743 8.49596 17.0743 8.47287C16.9956 7.38412 16.6836 6.32503 16.1595 5.36746C16.1315 5.31569 16.0322 5.27651 15.9657 5.27581C15.1961 5.26951 14.4265 5.27161 13.6593 5.27231C13.61 5.27231 13.561 5.27931 13.4946 5.28455C13.8488 6.34298 14.0537 7.44565 14.1033 8.56068H17.0743ZM4.90667 12.9136C4.53585 11.826 4.34869 10.7362 4.29132 9.63115H1.32444C1.3227 9.66228 1.3199 9.67977 1.32095 9.69691C1.39744 10.7918 1.70974 11.8572 2.23644 12.8202C2.26303 12.8691 2.35328 12.9087 2.4145 12.9097C2.87453 12.9171 3.33455 12.9136 3.79457 12.9136H4.90667ZM17.1086 9.6252H14.1029C14.0537 10.74 13.8494 11.8425 13.496 12.901C13.5565 12.9055 13.5967 12.9115 13.6359 12.9115C14.4164 12.9115 15.1968 12.9094 15.9773 12.9146C16.0892 12.9146 16.1406 12.8716 16.1889 12.7796C16.499 12.199 16.7317 11.5804 16.8812 10.9395C16.9781 10.5131 17.0341 10.0758 17.1086 9.62695V9.6252ZM7.22182 1.47389C6.13946 1.50888 3.31776 3.36296 3.0267 4.22213C3.73475 4.22213 4.4393 4.21758 5.14385 4.22598C5.28378 4.22773 5.3464 4.1777 5.40412 4.05666C5.80301 3.21218 6.32857 2.43358 6.9626 1.74781C7.04446 1.6607 7.12772 1.57394 7.22182 1.47389ZM15.4102 4.21269C14.2873 2.82457 12.9002 1.90803 11.1658 1.43996C11.1872 1.47657 11.2112 1.51164 11.2375 1.54491C11.984 2.29704 12.5668 3.16216 13.0286 4.11333C13.0545 4.16686 13.1507 4.21653 13.2147 4.21828C13.8965 4.22563 14.579 4.22283 15.2605 4.22248C15.2986 4.22178 15.3371 4.21723 15.4102 4.21269ZM3.01201 13.9634C3.55669 14.9929 6.3476 16.8075 7.20433 16.6969C7.18789 16.6763 7.17564 16.6571 7.16025 16.6413C6.42607 15.8977 5.82549 15.0331 5.38488 14.0855C5.33521 13.9805 5.26979 13.9609 5.16694 13.9616C4.5432 13.9651 3.91946 13.9634 3.29572 13.9634H3.01201ZM15.4179 13.9634C14.6612 13.9634 13.9567 13.9679 13.2525 13.9596C13.1125 13.9596 13.0496 14.0078 12.9919 14.1285C12.5931 14.9731 12.0675 15.7517 11.4334 16.4374C11.3515 16.5252 11.2683 16.6123 11.1861 16.6997C12.9006 16.2772 14.2869 15.361 15.4179 13.9634Z"
              fill="currentColor"/>
    </symbol>

    <symbol fill="none" xmlns="http://www.w3.org/2000/svg" viewBox="0 0 24 17"
            id="youtube">
        <g clip-path="url(#clip0_1788_34744)">
            <path d="M22.7034 2.60579C22.5741 2.12245 22.3197 1.6817 21.9659 1.32791C21.6121 0.974111 21.1713 0.719745 20.688 0.590406C18.9109 0.11377 11.782 0.11377 11.782 0.11377C11.782 0.11377 4.65127 0.11377 2.87608 0.590406C2.39274 0.719745 1.952 0.974111 1.5982 1.32791C1.2444 1.6817 0.990037 2.12245 0.860698 2.60579C0.372802 4.38285 0.372803 8.09273 0.372803 8.09273C0.372803 8.09273 0.372803 11.8007 0.849439 13.5797C0.979299 14.0628 1.23384 14.5032 1.58756 14.8569C1.94127 15.2107 2.38174 15.4652 2.86482 15.5951C4.64189 16.0717 11.7708 16.0717 11.7708 16.0717C11.7708 16.0717 18.9016 16.0717 20.6767 15.5951C21.1619 15.4669 21.6047 15.2132 21.9605 14.8593C22.3163 14.5055 22.5726 14.0641 22.7034 13.5797C23.18 11.8007 23.18 8.09273 23.18 8.09273C23.18 8.09273 23.1706 4.38285 22.7034 2.60579Z"
                  fill="currentColor"/>
            <path d="M9.49194 11.5104L15.4161 8.09138L9.49194 4.67236V11.5104Z"
                  fill="#101015"/>
        </g>
        <defs>
            <clipPath id="clip0_1788_34744">
                <rect width="22.796" height="15.9579" fill="white"
                      transform="translate(0.374756 0.11377)"/>
            </clipPath>
        </defs>
    </symbol>

    <symbol fill="none" xmlns="http://www.w3.org/2000/svg"
            viewBox="0 0 19 19"
            id="instagram">
        <path d="M0.565674 0.933594H18.4419V18.8098H0.565674V0.933594Z"
              fill="currentColor"/>
    </symbol>

    <symbol fill="none" xmlns="http://www.w3.org/2000/svg" viewBox="0 0 17 14"
            id="telegram">
        <path fill-rule="evenodd" clip-rule="evenodd"
              d="M1.60014 6.0027C5.82001 4.16457 8.63355 2.95266 10.0408 2.36697C14.06 0.69529 14.8954 0.404663 15.4396 0.395111C15.5595 0.393084 15.8272 0.424058 16.0006 0.563582C16.1468 0.682264 16.1873 0.842919 16.2064 0.955522C16.2359 1.1439 16.244 1.33499 16.2308 1.5252C16.0128 3.81374 15.0706 9.36864 14.5909 11.931C14.3883 13.0154 13.9885 13.3784 13.6018 13.4148C12.7623 13.4921 12.1232 12.8593 11.3089 12.3256C10.0353 11.4907 9.31564 10.9709 8.07903 10.156C6.64992 9.21436 7.57651 8.69679 8.39079 7.85096C8.60384 7.62951 12.3073 4.26155 12.3788 3.95558C12.3878 3.91737 12.3962 3.77495 12.3114 3.69969C12.2265 3.62442 12.1021 3.65019 12.0118 3.67074C11.884 3.69969 9.84903 5.04475 5.90686 7.70593C5.32908 8.10251 4.80591 8.29549 4.33736 8.28487C3.82036 8.27358 2.82633 7.99251 2.08731 7.75225C1.18099 7.45757 0.4605 7.30184 0.524184 6.80163C0.556411 6.5415 0.915063 6.27519 1.60014 6.0027Z"
              fill="currentColor"/>
    </symbol>

    <symbol fill="none" xmlns="http://www.w3.org/2000/svg" viewBox="0 0 24 16"
            id="vk">
        <path d="M12.6332 15.0393C4.711 15.0393 0.192369 9.60821 0.00408936 0.570801H3.97244C4.10279 7.20403 7.02829 10.0137 9.34557 10.5931V0.570801H13.0823V6.2916C15.3707 6.04538 17.7745 3.43844 18.5856 0.570801H22.3223C21.6995 4.10466 19.0926 6.71161 17.2387 7.78335C19.0926 8.65233 22.0617 10.9262 23.1914 15.0393H19.0781C18.1946 12.2876 15.9934 10.1586 13.0823 9.8689V15.0393H12.6332Z"
              fill="currentColor"/>
    </symbol>

    <symbol viewBox="0 0 50 50" fill="none" xmlns="http://www.w3.org/2000/svg"
            id="catalyst">
            <path fill-rule="evenodd" clip-rule="evenodd" d="M31.8053 43.4394C28.9526 39.2994 26.2494 35.125 23.6957 30.939C19.6927 24.3955 16.0462 17.7945 12.7794 11.2051C10.0417 13.8501 7.54552 16.7365 5.32544 19.83L30.1604 44.6584C30.7241 44.2559 31.2762 43.8534 31.8168 43.4279L31.8053 43.4394Z" fill="currentColor" />
            <path fill-rule="evenodd" clip-rule="evenodd" d="M26.2274 29.5365C28.7006 33.5845 31.3232 37.6094 34.0725 41.6229C34.6936 41.0939 35.3033 40.5649 35.9129 40.0129C35.1077 37.9774 34.3255 35.8845 33.5778 33.7455C30.219 24.2005 27.4007 13.5746 25.0426 2.01714C25.0311 2.01714 25.0196 2.00564 25.0081 1.99414C21.4307 4.06413 18.0833 6.46762 15.0005 9.1701C18.3364 15.9666 22.0863 22.7745 26.2274 29.5365Z" fill="currentColor" />
            <path fill-rule="evenodd" clip-rule="evenodd" d="M36.3013 32.8147C36.8995 34.5282 37.5206 36.2072 38.1533 37.8517C41.9608 34.0222 45.2737 29.6983 47.9999 24.9948C43.1456 16.5998 36.4049 9.44686 28.3643 4.08789C30.5843 14.4953 33.2415 24.1093 36.3013 32.8147Z" fill="currentColor" />
            <path fill-rule="evenodd" clip-rule="evenodd" d="M3.66793 22.2803C3.09278 23.1658 2.52914 24.0743 2 24.9943C7.52144 34.5277 15.47 42.4742 25.006 47.9941C25.9262 47.4651 26.835 46.9016 27.7207 46.3266L3.66793 22.2803Z" fill="currentColor" />
    </symbol>

    <symbol viewBox="0 0 17 16" fill="none" xmlns="http://www.w3.org/2000/svg"
            id="calendar">
            <path d="M5.83325 1.32715V3.32715" stroke="currentColor" stroke-miterlimit="10" stroke-linecap="round" stroke-linejoin="round" />
            <path d="M11.1667 1.32715V3.32715" stroke="currentColor" stroke-miterlimit="10" stroke-linecap="round" stroke-linejoin="round" />
            <path d="M14.5 5.66048V9.08048C13.9067 8.60715 13.1533 8.32715 12.3333 8.32715C11.5133 8.32715 10.7467 8.6138 10.1467 9.10046C9.34 9.7338 8.83333 10.7271 8.83333 11.8271C8.83333 12.4805 9.02001 13.1072 9.34001 13.6272C9.58667 14.0338 9.90666 14.3871 10.2867 14.6605H5.83333C3.5 14.6605 2.5 13.3271 2.5 11.3271V5.66048C2.5 3.66048 3.5 2.32715 5.83333 2.32715H11.1667C13.5 2.32715 14.5 3.66048 14.5 5.66048Z" stroke="currentColor" stroke-miterlimit="10" stroke-linecap="round" stroke-linejoin="round" />
            <path d="M5.16675 7.32715H9.16675" stroke="currentColor" stroke-miterlimit="10" stroke-linecap="round" stroke-linejoin="round" />
            <path d="M5.16675 10.6602H6.91341" stroke="currentColor" stroke-miterlimit="10" stroke-linecap="round" stroke-linejoin="round" />
            <path d="M15.8333 11.8271C15.8333 12.4805 15.6466 13.1072 15.3266 13.6272C15.1399 13.9472 14.9066 14.2272 14.6333 14.4538C14.0199 15.0005 13.2199 15.3271 12.3333 15.3271C11.5666 15.3271 10.8599 15.0805 10.2866 14.6605C9.90658 14.3871 9.58659 14.0338 9.33993 13.6272C9.01993 13.1072 8.83325 12.4805 8.83325 11.8271C8.83325 10.7271 9.33992 9.7338 10.1466 9.10046C10.7466 8.6138 11.5133 8.32715 12.3333 8.32715C13.1533 8.32715 13.9066 8.60715 14.4999 9.08049C15.3133 9.72049 15.8333 10.7138 15.8333 11.8271Z" stroke="currentColor" stroke-miterlimit="10" stroke-linecap="round" stroke-linejoin="round" />
            <path d="M12.3334 13.4935C12.3334 12.5735 13.0801 11.8268 14.0001 11.8268C13.0801 11.8268 12.3334 11.0802 12.3334 10.1602C12.3334 11.0802 11.5867 11.8268 10.6667 11.8268C11.5867 11.8268 12.3334 12.5735 12.3334 13.4935Z" stroke="currentColor" stroke-linecap="round" stroke-linejoin="round" />
    </symbol>

    <symbol viewBox="0 0 16 16" fill="none" xmlns="http://www.w3.org/2000/svg"
            id="buy-crypto">
            <path d="M14.6667 5.66048C14.6667 8.05382 12.7267 9.99382 10.3333 9.99382C10.22 9.99382 10.1 9.98716 9.98667 9.98049C9.82001 7.86716 8.12666 6.17381 6.01333 6.00714C6.00666 5.89381 6 5.77382 6 5.66048C6 3.26715 7.94 1.32715 10.3333 1.32715C12.7267 1.32715 14.6667 3.26715 14.6667 5.66048Z" stroke="currentColor" stroke-linecap="round" stroke-linejoin="round" />
            <path d="M10 10.3275C10 12.7208 8.06004 14.6608 5.66671 14.6608C3.27337 14.6608 1.33337 12.7208 1.33337 10.3275C1.33337 7.93414 3.27337 5.99414 5.66671 5.99414C5.78004 5.99414 5.90003 6.0008 6.01337 6.00747C8.1267 6.17413 9.82005 7.86748 9.98671 9.98081C9.99338 10.0941 10 10.2141 10 10.3275Z" stroke="currentColor" stroke-linecap="round" stroke-linejoin="round" />
            <path d="M5.08 9.74015L5.66667 8.66016L6.25334 9.74015L7.33333 10.3268L6.25334 10.9135L5.66667 11.9935L5.08 10.9135L4 10.3268L5.08 9.74015Z" stroke="currentColor" stroke-linecap="round" stroke-linejoin="round" />
    </symbol>
</svg>